<svg xmlns="http://www.w3.org/2000/svg" viewBox="0 0 329.6 329.6"><defs><style>.a{fill:#fff;}.b{fill:none;stroke:#fff;stroke-miterlimit:10;stroke-width:24px;}</style></defs><title>logo</title><path class="a" d="M499.81,398.27a101.07,101.07,0,1,1-38.6,7.72,101,101,0,0,1,38.6-7.72h0m0-24a125,125,0,1,0,115.53,77.2,124.64,124.64,0,0,0-115.53-77.2h0Z" transform="translate(-335.06 -334.5)"/><polygon class="b" points="116.96 49.31 164.8 14.8 212.63 49.31 270.86 58.73 280.28 116.96 314.8 164.8 280.28 212.63 270.86 270.86 212.63 280.28 164.8 314.8 116.96 280.28 58.73 270.86 49.31 212.63 14.8 164.8 49.31 116.96 58.73 58.73 116.96 49.31"/><rect class="a" x="347.72" y="484.58" width="36.58" height="31" transform="translate(-498.57 -156.37) rotate(-22.5)"/><rect class="a" x="388.76" y="574.08" width="36.58" height="31" transform="translate(-529.7 -133.85) rotate(-22.5)"/><rect class="a" x="480.57" y="611.33" width="36.58" height="31" transform="translate(-536.97 -95.88) rotate(-22.5)"/><rect class="a" x="567.8" y="570.13" width="36.58" height="31" transform="translate(-514.56 -65.63) rotate(-22.5)"/><rect class="a" x="606.72" y="483.8" width="36.58" height="31" transform="translate(-478.56 -57.31) rotate(-22.5)"/><rect class="a" x="569.06" y="392.9" width="36.58" height="31" transform="translate(-446.64 -78.64) rotate(-22.5)"/><rect class="a" x="478.8" y="355.25" width="36.58" height="31" transform="translate(-439.1 -116.05) rotate(-22.5)"/><rect class="a" x="392.82" y="390.86" width="36.58" height="31" transform="translate(-459.28 -146.24) rotate(-22.5)"/></svg>